# xmcd
#
# Track frame offsets:
#        150
#        37307
#        71515
#        87767
#        105307
#        131360
#        149472
#        166352
#        202050
#        242490
#        274957
#
# Disc length: 3957 seconds
#
# Revision: 0
# Processed by: cddbd v1.5.1PL0 Copyright (c) Steve Scherf et al.
# Submitted via: ExactAudioCopy v0.95a5
#
DISCID=9e0f730b
DTITLE=Various Artist - this is... CLUB NATION 2
DYEAR=1998
DGENRE=Dance
TTITLE0=Todd Terry - Something Goin' On(Tee's Mix)
TTITLE1=Staxx - Joy(Mondo's Pussycat Mix)
TTITLE2=Gala - Freed From Desire
TTITLE3=East 57th St. feat. Donna Allen - Saturday(Full Intention Mix)
TTITLE4=Tek 7 - Free Spirit
TTITLE5=Space Brothers - Forgiven(I Feel Your Love)
TTITLE6=Huff and Herb - Feeling Good
TTITLE7=Everyday People - Do What You Wanna
TTITLE8=Michelle Weeks - Don't Give Up(K-Klassic 12inch Mix)
TTITLE9=DimensionD - Go Ballistic(Club Mix)
TTITLE10=Evolution - I Feel Devine
EXTD=
EXTT0=
EXTT1=
EXTT2=
EXTT3=
EXTT4=
EXTT5=
EXTT6=
EXTT7=
EXTT8=
EXTT9=
EXTT10=
PLAYORDER=
